<svg width="10" height="10" viewBox="0 0 10 10" fill="none" xmlns="http://www.w3.org/2000/svg">
<path d="M4.5 0C3.95 0 3.5 0.45 3.5 1C3.5 1.35 3.7 1.7 4 1.85C4 1.9 4 1.95 4 2C4 3.1 3.1 4 2 4C1.95 4 1.9 4 1.85 4C1.7 3.7 1.35 3.5 1 3.5C0.45 3.5 0 3.95 0 4.5C0 5.05 0.45 5.5 1 5.5C1.35 5.5 1.7 5.3 1.85 5C1.9 5 1.95 5 2 5C3.65 5 5 3.65 5 2C5 1.95 5 1.9 5 1.85C5.3 1.7 5.5 1.35 5.5 1C5.5 0.45 5.05 0 4.5 0ZM4.5 1.5C5.7 1.5 6.8 2.1 7.4 3.1C7.9 2.75 8.55 2.75 9.05 3.1C9.3 3.3 9.5 3.65 9.5 4C9.5 4.55 9.05 5 8.5 5C8.15 5 7.8 4.8 7.65 4.5C6.95 5.85 5.55 6.75 4 6.95C4.3 7.3 4.5 7.75 4.5 8.25C4.5 9.2 3.7 10 2.75 10C1.8 10 1 9.2 1 8.25C1 7.3 1.8 6.5 2.75 6.5C3 6.5 3.2 6.55 3.4 6.65C4.8 6.4 6 5.55 6.7 4.35C6.2 3.75 6 2.9 6.15 2.05C5.65 1.7 5.1 1.5 4.5 1.5Z" fill="#F8C734"/>
</svg>
